<svg data-v-1084b650="" xmlns="http://www.w3.org/2000/svg" viewBox="0 0 300 300"><!----> <!----> <rect data-v-1084b650="" fill="#EFF5E9" x="0" y="0" width="300px" height="300px" class="logo-background-square"></rect> <!----> <linearGradient data-v-1084b650="" gradientTransform="rotate(25)" id="e28c8ea2-f44b-18e6-6165-c592e51bedf1" x1="0%" y1="0%" x2="100%" y2="0%"><stop data-v-1084b650="" offset="0%" style="stop-color: rgb(102, 108, 53); stop-opacity: 1;"></stop> <stop data-v-1084b650="" offset="100%" style="stop-color: rgb(119, 214, 54); stop-opacity: 1;"></stop></linearGradient> <g data-v-1084b650="" id="0d0f5bb9-0081-056c-7dc6-0024ace583ad" fill="url(#e28c8ea2-f44b-18e6-6165-c592e51bedf1)" stroke="none" transform="matrix(0.7999999999999998,0,0,0.7999999999999998,30.00000000000003,29.99960937500002)"><svg xmlns="http://www.w3.org/2000/svg" xmlns:xlink="http://www.w3.org/1999/xlink" version="1.1" x="0px" y="0px" viewBox="0 0 100 100" enable-background="new 0 0 100 100" xml:space="preserve"><path d="M93.408,82.469c-0.614-2.99-1.555-5.993-2.106-8.996c-0.603-3.283-1.397-6.566-1.964-9.855  c-0.704-4.088-1.353-8.207-2.209-12.262c-0.353-1.675,0.2-3.132,0.311-4.686c0.269-3.779,0.534-7.527-0.258-11.29  c-0.657-3.123-1.224-6.272-1.705-9.427c-0.397-2.604-0.625-5.234-0.925-7.85c2.672-0.81,3.35-4.973,2.665-7.344  c-0.761-2.63-2.574-4.07-5.994-4.725c-0.521-0.1-1.005-0.382-1.515-0.552C79.15,5.295,78.579,4.998,78.014,5  c-1.72,0.006-3.457,0.01-5.157,0.238c-2.943,0.394-5.868,0.937-8.794,1.451c-3.854,0.676-7.702,1.394-11.556,2.068  c-0.831,0.145-1.682,0.271-2.521,0.252c-3.927-0.09-7.741,0.71-11.577,1.376c-1.242,0.216-2.52,0.22-3.779,0.346  c-2.342,0.234-4.682,0.485-7.022,0.731c-2.378,0.25-4.753,0.524-7.134,0.75c-2.554,0.242-5.141,0.278-7.658,0.719  c-1.566,0.274-2.976,0.966-3.967,2.617c-1.078,1.796-2.608,3.525-3.091,5.578C5.655,21.561,5,21.998,5,22.434  c0,0.993,0,1.987,0,2.98c0,1.063,0.882,2.126,1.09,3.19c0.346,1.762,0.774,3.588,2.02,5.011c1.15,1.314,2.45,2.599,3.668,3.85  c0.887,0.911,1.863,1.802,2.847,2.605c4.92,4.018,9.918,7.974,14.824,12.009c3.897,3.205,7.751,6.481,11.599,9.747  c4.441,3.77,8.923,7.502,13.288,11.36c8.364,7.391,17.161,14.243,25.97,21.078c1.492,1.158,3.161,0.937,4.235-0.57  c1.747-2.45,4.279-4.882,6.636-6.807C92.232,86.026,94,85.072,95,84.16c0-0.284,0-0.568,0-0.851  C94,83.031,93.474,82.792,93.408,82.469z M8.838,22.733c0.254,2.573,0.491,4.982,0.728,7.391C8.488,27.774,8.19,25.379,8.838,22.733  z M11,32.96c0,0.024,0.022,0.047-0.049,0.071c-0.11-0.354-0.207-0.702-0.237-1.062c-0.352-4.23-0.796-8.463-1.145-12.694  C9.465,18.022,8,17.129,11,16.587C11,22.084,11,27.522,11,32.96z M33.932,13.117c0.417,0.238,0.944,0.384,1.232,0.73  c1.925,2.319,3.604,4.846,4.105,7.847c0.237,1.42-0.296,2.976-0.535,4.461c-0.022,0.138-0.464,0.33-0.674,0.292  c-0.47-0.086-0.917-0.302-1.334-0.451c1.426-4.81-0.138-8.835-2.897-12.58C33.863,13.317,33.897,13.217,33.932,13.117z   M13.309,33.589c-0.1,0.001-0.2,0.002-0.3,0.002c-0.297-5.705-0.02-11.419-0.121-17.127c0.098-0.029,0.197-0.059,0.296-0.088  c0.135,0.264,0.39,0.53,0.386,0.792C13.5,22.642,13.402,28.115,13.309,33.589z M15.448,30.157c-0.824,1.873,0.271,3.918-0.631,5.791  c-0.371-6.012-0.009-12.026-0.027-18.039c0.11-0.031,0.22-0.063,0.329-0.094c0.179,0.513,0.513,1.028,0.51,1.54  c-0.02,3.495-0.112,6.99-0.18,10.485C15.448,29.946,15.487,30.068,15.448,30.157z M17.136,37.988  c-0.407-0.499-0.84-0.792-0.816-1.042c0.097-1.021,0.327-2.03,0.522-3.041c0.053-0.277,0.239-0.55,0.22-0.815  c-0.156-2.213,0.96-4.16,1.272-6.274c0.462-3.125,0.605-6.215-1.179-9.015c-0.591-0.927-1.42-1.702-2.237-2.658  c2.866-0.262,5.798-0.516,8.727-0.802c2.482-0.242,4.958-0.544,7.442-0.761c0.509-0.044,1.261-0.017,1.527,0.297  c2.651,3.13,4.067,6.641,2.989,10.832c-0.173,0.674-0.481,0.932-1.235,0.954c-1.143,0.033-2.294,0.238-3.414,0.491  c-0.7,0.158-1.34,0.546-1.062,1.586c-1.564-0.282-1.937,1.131-2.755,1.845c-0.74,0.647-1.352,0.84-2.262,0.503  c-1.332-0.493-2.702-0.884-4.06-1.308c-0.164-0.051-0.349-0.054-0.523-0.048c-1.824,0.064-2.562,0.892-2.72,3.059  C17.431,33.731,17.299,35.673,17.136,37.988z M18.722,39.117c-0.17-0.381-0.5-0.77-0.482-1.142c0.08-1.66,0.258-3.316,0.407-4.973  c0.011-0.126,0.072-0.247,0.116-0.392C19.321,33.063,19.409,36.215,18.722,39.117z M20.794,40.961  c-0.157-0.244-0.447-0.486-0.451-0.733c-0.037-2.075-0.021-4.151-0.021-6.226c0.135-0.026,0.27-0.053,0.405-0.079  c0.136,0.267,0.386,0.532,0.391,0.801c0.033,2.043,0.018,4.086,0.018,6.13C21.022,40.889,20.908,40.925,20.794,40.961z   M22.893,42.863c-0.182-0.293-0.514-0.583-0.521-0.879c-0.045-2.132-0.024-4.266-0.024-6.399c0.1-0.029,0.2-0.059,0.3-0.088  c0.156,0.22,0.445,0.438,0.449,0.66C23.131,38.359,23.118,40.562,22.893,42.863z M25.064,44.276  c-0.097,0.024-0.194,0.048-0.291,0.072c-0.142-0.306-0.401-0.61-0.406-0.919c-0.036-2.114-0.019-4.23-0.019-6.72  c0.457,0.605,0.987,0.983,0.983,1.356C25.314,40.136,25.167,42.206,25.064,44.276z M27.211,46.183  c-0.119,0.039-0.239,0.078-0.358,0.117c-0.203-0.447-0.567-0.888-0.582-1.341c-0.065-1.974-0.028-3.952-0.028-6.104  c1.104,0.436,1.353,0.993,1.279,1.85C27.367,42.526,27.309,44.356,27.211,46.183z M28.823,47.924  c-0.105-0.266-0.308-0.535-0.298-0.796c0.073-2.015,0.187-4.029,0.289-6.043c0.096-0.045,0.192-0.089,0.288-0.134  c0.166,0.365,0.494,0.741,0.472,1.095C29.45,43.985,29.241,45.919,28.823,47.924z M31.077,49.245  c-0.101,0.023-0.202,0.045-0.304,0.068c-0.099-0.288-0.291-0.578-0.281-0.862c0.065-1.906,0.173-3.812,0.451-5.806  c0.131,0.258,0.381,0.52,0.374,0.774C31.266,45.362,31.163,47.304,31.077,49.245z M33.091,50.881  c-0.119,0.003-0.238,0.006-0.357,0.009c-0.11-0.3-0.309-0.599-0.314-0.901c-0.03-1.831-0.015-3.663-0.015-5.495  c0.142-0.029,0.284-0.059,0.426-0.088c0.178,0.332,0.514,0.667,0.507,0.995C33.302,47.228,33.183,49.054,33.091,50.881z   M35.204,52.493c-0.296-0.377-0.632-0.606-0.628-0.83c0.03-1.68,0.126-3.358,0.202-5.037c0.099-0.037,0.198-0.074,0.296-0.111  c0.182,0.427,0.532,0.861,0.517,1.281C35.539,49.274,35.36,50.747,35.204,52.493z M37.944,50.385  c-0.115,0.622-0.134,1.266-0.162,1.901c-0.026,0.593-0.005,1.189-0.005,1.835c-0.856-0.41-0.89-0.719-0.683-5.261  C38.034,49.258,38.115,49.462,37.944,50.385z M40.578,53.067c-0.195,1.018-0.042,2.103-0.042,3.3  c-0.923-0.379-1.213-0.889-1.167-1.708c0.067-1.186,0.017-2.378,0.017-3.673C40.306,51.484,40.789,51.964,40.578,53.067z   M43.049,55.346c-0.231,1.014-0.197,2.089-0.3,3.406c-1.477-1.749-0.466-3.596-0.886-5.424  C42.933,53.831,43.276,54.352,43.049,55.346z M45.651,61.448c-0.791-0.578-1.489-1.129-1.409-2.302  c0.084-1.217,0.019-2.445,0.019-3.992c0.678,0.632,1.097,1.002,1.488,1.4c0.138,0.14,0.305,0.354,0.293,0.522  C45.936,58.507,45.792,59.936,45.651,61.448z M47.28,62.793c-0.107,0.007-0.215,0.015-0.322,0.022c0-0.458-0.005-0.917,0.001-1.375  c0.008-0.566,0.029-1.132,0.036-1.698c0.006-0.529,0.001-1.058,0.001-1.587c0.15-0.026,0.3-0.053,0.45-0.079  c0.052,0.454,0.169,0.912,0.142,1.362C47.52,60.559,47.387,61.675,47.28,62.793z M49.436,64.789  c-0.899-1.409-0.031-2.949-0.154-4.415C49.959,61.799,49.461,63.312,49.436,64.789z M51.848,66.703  c-1.467-1.312-0.528-2.981-0.924-4.739C53.075,63.43,51.288,65.25,51.848,66.703z M54.564,68.941  c-1.244-0.635-1.58-2.431-0.932-4.358C55.407,65.758,54.178,67.445,54.564,68.941z M56.746,70.863  c-0.71-0.357-0.979-2.106-0.587-3.81C57.175,67.637,57.252,68.132,56.746,70.863z M58.679,68.503  c0.802,1.31-0.058,2.747,0.361,4.186C58.208,72.304,58.147,71.488,58.679,68.503z M61.021,74.502  c-1.115-1.438-0.267-3.13-0.665-4.724C61.606,70.138,61.233,69.855,61.021,74.502z M62.431,76.252  C62.287,76.263,62,76.273,62,76.283c0-1.445,0-2.89,0-4.335C64,73.301,62.011,74.815,62.431,76.252z M66.386,76.164  c-0.187,0.873-0.113,1.803-0.162,2.827c-0.883-0.521-1.523-0.968-1.416-2.072c0.105-1.081,0.023-2.181,0.023-3.415  C65.995,74.148,66.674,74.823,66.386,76.164z M68.877,81.088c-0.102,0.041-0.204,0.081-0.306,0.122  c-0.201-0.374-0.553-0.74-0.574-1.124c-0.072-1.299-0.028-2.605-0.028-3.919c0.689,0.27,0.975,0.747,0.926,1.539  C68.824,78.829,68.877,79.96,68.877,81.088z M70.5,81.909c0.092-1.11,0.02-2.234,0.02-3.473c1.099,0.553,1.448,1.244,1.385,2.305  c-0.066,1.105,0.118,2.224,0.204,3.502C71.062,83.658,70.402,83.101,70.5,81.909z M74.743,82.878  c-0.187,1.102-0.139,2.244-0.2,3.477c-0.82-0.36-1.09-0.845-1.046-1.624c0.067-1.192,0.017-2.391,0.017-3.62  C74.297,81.374,74.943,81.7,74.743,82.878z M77.407,84.675c-0.227,1.21-0.258,2.457-0.374,3.688  c-0.091,0.056-0.182,0.112-0.273,0.168c-0.207-0.345-0.586-0.688-0.589-1.034c-0.012-1.303,0.098-2.606,0.165-3.97  C77.08,83.569,77.601,83.645,77.407,84.675z M79.854,90.622c-1.203-0.512-1.712-1.157-1.344-2.429  c0.246-0.851,0.152-1.802,0.215-2.791c0.568,0.21,1.001,0.371,1.49,0.552C80.098,87.472,79.979,89.006,79.854,90.622z   M81.372,91.379c0.089-1.49,0.172-2.888,0.267-4.487c0.438,0.351,1.119,0.678,1.088,0.908  C82.561,89.036,83.078,90.562,81.372,91.379z M84.133,88.279c0-0.232-0.103-0.562,0.017-0.738c0.715-1.049-0.045-1.514-0.746-1.978  c-1.997-1.324-4.083-2.524-5.995-3.96c-2.759-2.072-5.439-4.256-8.074-6.487c-5.113-4.331-10.241-8.647-15.231-13.118  c-5.591-5.009-11.019-10.2-16.549-15.277c-4.157-3.816-8.345-7.597-12.559-11.35c-1.79-1.594-3.682-3.074-5.542-4.618  c0.911-0.705,2.154-0.616,3.096,0.137c0.553,0.442,1.064,1.155,1.886,0.357c0.091-0.088,0.463,0.044,0.662,0.153  c1.127,0.615,2.154,0.331,3-0.472c1.033-0.98,2.075-1.783,3.608-1.496c0.105,0.02,0.238-0.114,0.41-0.203  c-0.135-0.479-0.263-0.936-0.408-1.453c0.899-0.306,1.847-0.792,2.9-0.209c0.03,0.017,0.07,0.054,0.088,0.046  c1.897-0.858,3.437,0.54,5.141,0.859c2.234,0.419,4.752-0.228,4.925-3.006c0.021-0.343,0.646-0.903,1.021-0.929  c2.545-0.179,5.024,0.093,7.288,1.452c0.263,0.158,0.703,0.11,1.036,0.041c0.799-0.167,1.575-0.446,2.376-0.6  c0.801-0.154,1.766,0.015,1.72-1.302c-0.005-0.131,0.534-0.389,0.829-0.403c1.052-0.05,2.107-0.019,3.161-0.019  c-0.009-1.086-0.503-1.471-2.089-1.686c-2.238-0.304-3.352,0.138-3.742,1.484c-1.102,0.176-2.482-0.483-3.129,0.808  c-1.661-0.402-3.364-0.871-5.093-1.212c-0.958-0.189-1.957-0.219-2.938-0.221c-1.217-0.002-1.813,0.513-2.102,1.647  c-0.593,2.333-1.041,2.598-3.519,2.066c1.853-2.287,1.482-4.799,0.444-7.18c-0.958-2.199-2.287-4.236-3.463-6.362  c1.974-0.255,4.185-0.535,6.395-0.828c4.175-0.555,8.362-1.033,12.52-1.699C60.655,9.69,65.805,8.68,70.975,7.796  c2.103-0.36,4.228-0.594,6.343-0.881c0.101-0.014,0.256-0.03,0.305,0.026c1.049,1.201,2.566,0.913,3.886,1.251  c1.359,0.347,2.989,2.653,3.027,4.407c0.051,2.344-1.216,4.223-2.227,6.256c-1.813-1.372-3.687-1.899-5.795-1.244  c-0.685,0.213-1,0.578-0.925,1.394c0.133,1.45-0.333,1.781-1.73,1.335c-0.88-0.281-1.702-0.359-2.524,0.173  c-0.153,0.099-0.449,0.07-0.643,0c-2.674-0.958-5.089-0.337-7.353,1.2c-0.75,0.509-0.584,1.302-0.317,1.9  c0.155,0.347,0.819,0.465,1.257,0.682c0.014,0.007,0.053-0.036,0.129-0.092c-0.007-1.015,0.701-1.534,1.564-1.818  c1.556-0.512,3.111-1.081,4.721,0c0.356,0.239,1.121,0.206,1.51-0.023c0.697-0.41,1.238-0.162,1.87,0.027  c1.262,0.377,2.528,0.109,2.921-0.747c0.311-0.677,0.338-1.485,0.552-2.535c1.211,0.167,2.546,0.327,3.867,0.561  c0.2,0.035,0.457,0.402,0.486,0.64c0.206,1.717,0.379,3.438,0.508,5.162c0.017,0.225-0.217,0.577-0.43,0.692  c-0.614,0.333-0.988,0.815-0.664,1.44c0.179,0.344,0.739,0.49,1.127,0.724c0.077-0.078,0.153-0.156,0.23-0.234  c0.193,0.986,0.386,1.972,0.609,3.114c-1.971-1.194-4.044-1.435-6.087-0.997c-4.181,0.897-5.732,3.384-6.178,7.476  c-0.274,2.508,0.119,4.938,1.68,7.051c1.242,1.682,2.908,2.791,4.855,3.409c1.54,0.489,3.063,1.195,4.792,0.713  c0.651-0.181,1.394-0.029,2.119-0.029c1.456,11.885,1.833,23.857,5.218,35.121C87.709,85.487,85.948,86.861,84.133,88.279z   M61.96,36.118c-0.373-0.288-0.633-0.719-0.958-1.072c-0.403-0.437-0.765-0.94-1.241-1.28c-2.544-1.816-5.441-2.517-8.777-2.657  c-0.62,0.07-1.504,0.101-2.359,0.277c-5.747,1.189-10.219,4.911-10.081,11.702c0.063,3.125,1.873,5.556,4.882,6.374  c2.65,0.721,5.287,0.543,7.894-0.213c4.344-1.259,8.334-3.156,11.359-6.67C64.667,40.273,64.375,37.984,61.96,36.118z M54.199,33  c-1.815,0-3.629,0-5.444,0c0.016,0,0.031-0.433,0.047-0.563c1.805,0.08,3.61,0.246,5.415,0.325C54.211,32.813,54.205,33,54.199,33z   M82.864,58.743c0.659,1.392,1.314,2.819,1.695,4.303c0.995,3.88-0.533,6.443-4.354,7.437c-1.179,0.307-2.416,0.391-3.284,0.524  c-4.531-0.281-8.317-1.373-11.035-4.866c-3.14-4.037-2.302-9.931,1.767-12.371c2.217-1.329,4.577-1.286,7.025-0.858  c2.537,0.443,4.777,1.428,6.531,3.329C81.88,56.968,82.44,57.845,82.864,58.743z M38.036,34.136  c0.014,0.147,0.066,0.294,0.026,0.326c-0.803,0.642-1.572,1.345-2.444,1.875c-0.542,0.329-0.921-0.035-0.934-0.687  c-0.018-0.915,0.849-2.091,1.729-2.307c0.833-0.204,0.947,0.305,0.892,0.95C37.54,34.243,37.768,34.194,38.036,34.136z   M84.449,74.229c0.02,0.943-0.195,1.873-1.045,2.402c-0.357,0.222-0.902,0.139-1.362,0.195c0.018-0.452-0.426-0.918-0.324-1.349  C81.78,75.213,82,75.002,82,74.576c0,0.589,0,0.916,0,1.316c1-0.948,1.237-1.544,0.298-2.291c0.618-0.126,1.219-0.336,1.491-0.225  C84.026,73.473,84.443,73.928,84.449,74.229z M66.67,49.617c-0.337-1.067,0.175-2.675,1.076-3.136  c0.283-0.145,0.694-0.039,1.047-0.047c-0.185,0.204-0.4,0.39-0.55,0.617c-0.335,0.507-0.637,1.036-0.953,1.556  c0.081,0.057,0.161,0.113,0.242,0.169c0.502-0.56,1.004-1.119,1.598-1.781C69.125,48.613,68.044,49.683,66.67,49.617z   M68.919,29.358c0.073-1.16,0.959-1.637,3.446-1.91C72.237,28.706,70.674,29.598,68.919,29.358z M55.294,54.909  c-0.466,0.359-0.824,0.793-1.275,0.937c-0.416,0.133-1.164,0.133-1.355-0.121c-0.403-0.536-0.016-1.03,0.565-1.316  C54.058,54.002,54.739,54.1,55.294,54.909z"></path></svg></g></svg>