<svg data-v-1084b650="" xmlns="http://www.w3.org/2000/svg" viewBox="0 0 300 300"><!----> <!----> <rect data-v-1084b650="" fill="#EFF5E9" x="0" y="0" width="300px" height="300px" class="logo-background-square"></rect> <!----> <g data-v-1084b650="" id="5dc25c2c-fa01-13e5-8d97-3238e9824637" fill="#213210" transform="matrix(2.8,0,0,2.8,25.343990504741683,155.20939922332764)"><path d="M3.91 11.52L3.32 11.33L3.32 11.33Q2.70 11.12 2.20 10.90L2.20 10.90L2.20 10.90Q1.69 10.68 1.33 10.37L1.33 10.37L1.33 10.37Q0.97 10.07 0.76 9.64L0.76 9.64L0.76 9.64Q0.56 9.21 0.56 8.60L0.56 8.60L0.56 8.60Q0.56 7.41 1.48 6.69L1.48 6.69L1.48 6.69Q2.39 5.98 4.05 5.98L4.05 5.98L4.05 5.98Q4.65 5.98 5.17 6.06L5.17 6.06L5.17 6.06Q5.68 6.15 6.05 6.32L6.05 6.32L6.05 6.32Q6.43 6.50 6.64 6.77L6.64 6.77L6.64 6.77Q6.85 7.04 6.85 7.41L6.85 7.41L6.85 7.41Q6.85 7.77 6.68 8.03L6.68 8.03L6.68 8.03Q6.51 8.29 6.27 8.47L6.27 8.47L6.27 8.47Q5.96 8.27 5.45 8.13L5.45 8.13L5.45 8.13Q4.93 7.98 4.31 7.98L4.31 7.98L4.31 7.98Q3.68 7.98 3.39 8.16L3.39 8.16L3.39 8.16Q3.09 8.33 3.09 8.60L3.09 8.60L3.09 8.60Q3.09 8.81 3.28 8.94L3.28 8.94L3.28 8.94Q3.46 9.07 3.82 9.18L3.82 9.18L4.56 9.42L4.56 9.42Q5.88 9.84 6.59 10.49L6.59 10.49L6.59 10.49Q7.29 11.14 7.29 12.26L7.29 12.26L7.29 12.26Q7.29 13.45 6.36 14.19L6.36 14.19L6.36 14.19Q5.42 14.92 3.60 14.92L3.60 14.92L3.60 14.92Q2.95 14.92 2.40 14.82L2.40 14.82L2.40 14.82Q1.85 14.71 1.44 14.51L1.44 14.51L1.44 14.51Q1.02 14.31 0.79 14.01L0.79 14.01L0.79 14.01Q0.56 13.71 0.56 13.31L0.56 13.31L0.56 13.31Q0.56 12.91 0.80 12.62L0.80 12.62L0.80 12.62Q1.04 12.33 1.32 12.18L1.32 12.18L1.32 12.18Q1.71 12.49 2.27 12.71L2.27 12.71L2.27 12.71Q2.84 12.94 3.51 12.94L3.51 12.94L3.51 12.94Q4.20 12.94 4.48 12.73L4.48 12.73L4.48 12.73Q4.76 12.52 4.76 12.24L4.76 12.24L4.76 12.24Q4.76 11.96 4.54 11.81L4.54 11.81L4.54 11.81Q4.31 11.66 3.91 11.52L3.91 11.52ZM12.07 14.92L12.07 14.92L12.07 14.92Q11.24 14.92 10.54 14.69L10.54 14.69L10.54 14.69Q9.83 14.46 9.30 14.00L9.30 14.00L9.30 14.00Q8.78 13.54 8.48 12.84L8.48 12.84L8.48 12.84Q8.18 12.14 8.18 11.20L8.18 11.20L8.18 11.20Q8.18 10.28 8.48 9.61L8.48 9.61L8.48 9.61Q8.78 8.95 9.27 8.52L9.27 8.52L9.27 8.52Q9.76 8.09 10.39 7.89L10.39 7.89L10.39 7.89Q11.02 7.69 11.68 7.69L11.68 7.69L11.68 7.69Q12.42 7.69 13.03 7.91L13.03 7.91L13.03 7.91Q13.64 8.13 14.08 8.53L14.08 8.53L14.08 8.53Q14.52 8.92 14.76 9.46L14.76 9.46L14.76 9.46Q15.01 10.01 15.01 10.65L15.01 10.65L15.01 10.65Q15.01 11.13 14.74 11.38L14.74 11.38L14.74 11.38Q14.48 11.63 14 11.70L14 11.70L10.54 12.22L10.54 12.22Q10.70 12.68 11.17 12.92L11.17 12.92L11.17 12.92Q11.65 13.15 12.26 13.15L12.26 13.15L12.26 13.15Q12.84 13.15 13.35 13.00L13.35 13.00L13.35 13.00Q13.86 12.85 14.18 12.66L14.18 12.66L14.18 12.66Q14.41 12.80 14.56 13.05L14.56 13.05L14.56 13.05Q14.71 13.30 14.71 13.58L14.71 13.58L14.71 13.58Q14.71 14.21 14.13 14.52L14.13 14.52L14.13 14.52Q13.68 14.76 13.12 14.84L13.12 14.84L13.12 14.84Q12.56 14.92 12.07 14.92ZM11.68 9.42L11.68 9.42L11.68 9.42Q11.34 9.42 11.10 9.53L11.10 9.53L11.10 9.53Q10.85 9.65 10.70 9.82L10.70 9.82L10.70 9.82Q10.54 10.00 10.46 10.21L10.46 10.21L10.46 10.21Q10.39 10.43 10.37 10.65L10.37 10.65L12.77 10.26L12.77 10.26Q12.73 9.98 12.46 9.70L12.46 9.70L12.46 9.70Q12.19 9.42 11.68 9.42ZM20.47 13.69L20.47 10.39L20.47 10.39Q20.47 9.95 20.22 9.75L20.22 9.75L20.22 9.75Q19.98 9.55 19.56 9.55L19.56 9.55L19.56 9.55Q19.28 9.55 19.01 9.62L19.01 9.62L19.01 9.62Q18.73 9.69 18.54 9.83L18.54 9.83L18.54 14.69L18.54 14.69Q18.40 14.73 18.10 14.77L18.10 14.77L18.10 14.77Q17.79 14.81 17.47 14.81L17.47 14.81L17.47 14.81Q17.16 14.81 16.92 14.77L16.92 14.77L16.92 14.77Q16.67 14.73 16.51 14.60L16.51 14.60L16.51 14.60Q16.34 14.48 16.25 14.26L16.25 14.26L16.25 14.26Q16.16 14.04 16.16 13.69L16.16 13.69L16.16 9.49L16.16 9.49Q16.16 9.11 16.32 8.88L16.32 8.88L16.32 8.88Q16.48 8.64 16.76 8.44L16.76 8.44L16.76 8.44Q17.23 8.11 17.96 7.90L17.96 7.90L17.96 7.90Q18.68 7.69 19.56 7.69L19.56 7.69L19.56 7.69Q21.14 7.69 21.99 8.38L21.99 8.38L21.99 8.38Q22.85 9.07 22.85 10.30L22.85 10.30L22.85 14.69L22.85 14.69Q22.71 14.73 22.41 14.77L22.41 14.77L22.41 14.77Q22.11 14.81 21.78 14.81L21.78 14.81L21.78 14.81Q21.48 14.81 21.23 14.77L21.23 14.77L21.23 14.77Q20.99 14.73 20.82 14.60L20.82 14.60L20.82 14.60Q20.65 14.48 20.56 14.26L20.56 14.26L20.56 14.26Q20.47 14.04 20.47 13.69L20.47 13.69ZM24.02 11.30L24.02 11.30L24.02 11.30Q24.02 10.37 24.30 9.70L24.30 9.70L24.30 9.70Q24.58 9.02 25.08 8.57L25.08 8.57L25.08 8.57Q25.58 8.12 26.24 7.90L26.24 7.90L26.24 7.90Q26.91 7.69 27.68 7.69L27.68 7.69L27.68 7.69Q27.96 7.69 28.22 7.74L28.22 7.74L28.22 7.74Q28.49 7.78 28.66 7.85L28.66 7.85L28.66 5.59L28.66 5.59Q28.80 5.54 29.11 5.50L29.11 5.50L29.11 5.50Q29.41 5.45 29.74 5.45L29.74 5.45L29.74 5.45Q30.04 5.45 30.29 5.49L30.29 5.49L30.29 5.49Q30.53 5.53 30.70 5.66L30.70 5.66L30.70 5.66Q30.87 5.78 30.95 6.00L30.95 6.00L30.95 6.00Q31.04 6.22 31.04 6.57L31.04 6.57L31.04 13.20L31.04 13.20Q31.04 13.86 30.42 14.25L30.42 14.25L30.42 14.25Q30.02 14.52 29.37 14.72L29.37 14.72L29.37 14.72Q28.73 14.92 27.89 14.92L27.89 14.92L27.89 14.92Q26.98 14.92 26.26 14.67L26.26 14.67L26.26 14.67Q25.54 14.42 25.04 13.94L25.04 13.94L25.04 13.94Q24.54 13.47 24.28 12.80L24.28 12.80L24.28 12.80Q24.02 12.14 24.02 11.30ZM28.00 9.55L28.00 9.55L28.00 9.55Q27.24 9.55 26.84 9.98L26.84 9.98L26.84 9.98Q26.43 10.42 26.43 11.30L26.43 11.30L26.43 11.30Q26.43 12.17 26.81 12.61L26.81 12.61L26.81 12.61Q27.19 13.05 27.90 13.05L27.90 13.05L27.90 13.05Q28.15 13.05 28.36 12.97L28.36 12.97L28.36 12.97Q28.56 12.89 28.67 12.80L28.67 12.80L28.67 9.72L28.67 9.72Q28.39 9.55 28.00 9.55ZM41.37 12.61L41.37 12.61L41.37 12.61Q41.19 12.77 40.90 12.86L40.90 12.86L40.90 12.86Q40.61 12.95 40.24 12.95L40.24 12.95L40.24 12.95Q39.73 12.95 39.40 12.82L39.40 12.82L39.40 12.82Q39.07 12.70 38.98 12.39L38.98 12.39L38.98 12.39Q38.58 11.16 38.33 10.40L38.33 10.40L38.33 10.40Q38.08 9.63 37.94 9.06L37.94 9.06L37.87 9.06L37.87 9.06Q37.83 9.88 37.81 10.56L37.81 10.56L37.81 10.56Q37.79 11.24 37.78 11.89L37.78 11.89L37.78 11.89Q37.77 12.53 37.75 13.19L37.75 13.19L37.75 13.19Q37.73 13.85 37.69 14.64L37.69 14.64L37.69 14.64Q37.51 14.71 37.21 14.76L37.21 14.76L37.21 14.76Q36.92 14.81 36.62 14.81L36.62 14.81L36.62 14.81Q36.01 14.81 35.66 14.62L35.66 14.62L35.66 14.62Q35.32 14.42 35.32 13.90L35.32 13.90L35.73 6.76L35.73 6.76Q35.84 6.58 36.22 6.37L36.22 6.37L36.22 6.37Q36.60 6.16 37.28 6.16L37.28 6.16L37.28 6.16Q38.02 6.16 38.44 6.39L38.44 6.39L38.44 6.39Q38.86 6.62 39.06 7.14L39.06 7.14L39.06 7.14Q39.19 7.48 39.33 7.91L39.33 7.91L39.33 7.91Q39.48 8.34 39.63 8.81L39.63 8.81L39.63 8.81Q39.77 9.27 39.91 9.72L39.91 9.72L39.91 9.72Q40.05 10.18 40.17 10.54L40.17 10.54L40.24 10.54L40.24 10.54Q40.57 9.37 40.91 8.27L40.91 8.27L40.91 8.27Q41.24 7.17 41.52 6.43L41.52 6.43L41.52 6.43Q41.73 6.31 42.06 6.24L42.06 6.24L42.06 6.24Q42.39 6.16 42.80 6.16L42.80 6.16L42.80 6.16Q43.48 6.16 43.92 6.36L43.92 6.36L43.92 6.36Q44.35 6.57 44.42 6.94L44.42 6.94L44.42 6.94Q44.48 7.22 44.54 7.81L44.54 7.81L44.54 7.81Q44.60 8.39 44.67 9.11L44.67 9.11L44.67 9.11Q44.74 9.84 44.81 10.65L44.81 10.65L44.81 10.65Q44.88 11.47 44.95 12.22L44.95 12.22L44.95 12.22Q45.01 12.96 45.05 13.59L45.05 13.59L45.05 13.59Q45.09 14.21 45.11 14.55L45.11 14.55L45.11 14.55Q44.87 14.69 44.61 14.75L44.61 14.75L44.61 14.75Q44.35 14.81 43.95 14.81L43.95 14.81L43.95 14.81Q43.41 14.81 43.05 14.63L43.05 14.63L43.05 14.63Q42.69 14.45 42.66 13.92L42.66 13.92L42.66 13.92Q42.57 12.39 42.55 11.17L42.55 11.17L42.55 11.17Q42.53 9.95 42.49 9.13L42.49 9.13L42.42 9.13L42.42 9.13Q42.28 9.67 42.01 10.50L42.01 10.50L42.01 10.50Q41.75 11.33 41.37 12.61ZM50.02 14.92L50.02 14.92L50.02 14.92Q49.20 14.92 48.49 14.69L48.49 14.69L48.49 14.69Q47.78 14.46 47.26 14.00L47.26 14.00L47.26 14.00Q46.73 13.54 46.43 12.84L46.43 12.84L46.43 12.84Q46.13 12.14 46.13 11.20L46.13 11.20L46.13 11.20Q46.13 10.28 46.43 9.61L46.43 9.61L46.43 9.61Q46.73 8.95 47.22 8.52L47.22 8.52L47.22 8.52Q47.71 8.09 48.34 7.89L48.34 7.89L48.34 7.89Q48.97 7.69 49.63 7.69L49.63 7.69L49.63 7.69Q50.37 7.69 50.98 7.91L50.98 7.91L50.98 7.91Q51.59 8.13 52.03 8.53L52.03 8.53L52.03 8.53Q52.47 8.92 52.72 9.46L52.72 9.46L52.72 9.46Q52.96 10.01 52.96 10.65L52.96 10.65L52.96 10.65Q52.96 11.13 52.70 11.38L52.70 11.38L52.70 11.38Q52.43 11.63 51.95 11.70L51.95 11.70L48.50 12.22L48.50 12.22Q48.65 12.68 49.13 12.92L49.13 12.92L49.13 12.92Q49.60 13.15 50.22 13.15L50.22 13.15L50.22 13.15Q50.79 13.15 51.30 13.00L51.30 13.00L51.30 13.00Q51.81 12.85 52.14 12.66L52.14 12.66L52.14 12.66Q52.36 12.80 52.51 13.05L52.51 13.05L52.51 13.05Q52.67 13.30 52.67 13.58L52.67 13.58L52.67 13.58Q52.67 14.21 52.08 14.52L52.08 14.52L52.08 14.52Q51.63 14.76 51.07 14.84L51.07 14.84L51.07 14.84Q50.51 14.92 50.02 14.92ZM49.63 9.42L49.63 9.42L49.63 9.42Q49.29 9.42 49.05 9.53L49.05 9.53L49.05 9.53Q48.80 9.65 48.65 9.82L48.65 9.82L48.65 9.82Q48.50 10.00 48.42 10.21L48.42 10.21L48.42 10.21Q48.34 10.43 48.33 10.65L48.33 10.65L50.72 10.26L50.72 10.26Q50.68 9.98 50.41 9.70L50.41 9.70L50.41 9.70Q50.15 9.42 49.63 9.42ZM59.53 10.15L60.27 10.15L60.27 10.15Q60.86 10.15 61.17 9.88L61.17 9.88L61.17 9.88Q61.49 9.60 61.49 9.04L61.49 9.04L61.49 9.04Q61.49 8.51 61.16 8.23L61.16 8.23L61.16 8.23Q60.83 7.94 60.20 7.94L60.20 7.94L60.20 7.94Q59.98 7.94 59.83 7.95L59.83 7.95L59.83 7.95Q59.68 7.95 59.53 7.98L59.53 7.98L59.53 10.15ZM59.54 12.07L59.54 14.64L59.54 14.64Q59.39 14.69 59.06 14.73L59.06 14.73L59.06 14.73Q58.73 14.77 58.41 14.77L58.41 14.77L58.41 14.77Q58.09 14.77 57.84 14.72L57.84 14.72L57.84 14.72Q57.60 14.67 57.43 14.55L57.43 14.55L57.43 14.55Q57.26 14.42 57.18 14.20L57.18 14.20L57.18 14.20Q57.09 13.97 57.09 13.61L57.09 13.61L57.09 7.01L57.09 7.01Q57.09 6.72 57.25 6.56L57.25 6.56L57.25 6.56Q57.41 6.40 57.69 6.30L57.69 6.30L57.69 6.30Q58.17 6.13 58.78 6.06L58.78 6.06L58.78 6.06Q59.39 5.98 60.00 5.98L60.00 5.98L60.00 5.98Q61.94 5.98 62.96 6.80L62.96 6.80L62.96 6.80Q63.98 7.63 63.98 9.04L63.98 9.04L63.98 9.04Q63.98 9.73 63.76 10.28L63.76 10.28L63.76 10.28Q63.55 10.84 63.12 11.24L63.12 11.24L63.12 11.24Q62.69 11.63 62.04 11.85L62.04 11.85L62.04 11.85Q61.39 12.07 60.54 12.07L60.54 12.07L59.54 12.07ZM64.85 6.01L64.85 6.01L64.85 6.01Q64.85 5.47 65.20 5.11L65.20 5.11L65.20 5.11Q65.56 4.75 66.15 4.75L66.15 4.75L66.15 4.75Q66.74 4.75 67.09 5.11L67.09 5.11L67.09 5.11Q67.45 5.47 67.45 6.01L67.45 6.01L67.45 6.01Q67.45 6.54 67.09 6.90L67.09 6.90L67.09 6.90Q66.74 7.27 66.15 7.27L66.15 7.27L66.15 7.27Q65.56 7.27 65.20 6.90L65.20 6.90L65.20 6.90Q64.85 6.54 64.85 6.01ZM67.34 8.99L67.34 14.69L67.34 14.69Q67.19 14.71 66.89 14.76L66.89 14.76L66.89 14.76Q66.58 14.81 66.28 14.81L66.28 14.81L66.28 14.81Q65.97 14.81 65.72 14.77L65.72 14.77L65.72 14.77Q65.48 14.73 65.31 14.60L65.31 14.60L65.31 14.60Q65.14 14.48 65.05 14.26L65.05 14.26L65.05 14.26Q64.96 14.04 64.96 13.69L64.96 13.69L64.96 7.99L64.96 7.99Q65.11 7.97 65.42 7.92L65.42 7.92L65.42 7.92Q65.72 7.87 66.02 7.87L66.02 7.87L66.02 7.87Q66.33 7.87 66.58 7.91L66.58 7.91L66.58 7.91Q66.82 7.95 66.99 8.08L66.99 8.08L66.99 8.08Q67.16 8.20 67.25 8.42L67.25 8.42L67.25 8.42Q67.34 8.64 67.34 8.99L67.34 8.99ZM73.72 14.70L69.09 14.70L69.09 14.70Q68.87 14.50 68.73 14.24L68.73 14.24L68.73 14.24Q68.60 13.97 68.60 13.64L68.60 13.64L68.60 13.64Q68.60 13.36 68.73 13.08L68.73 13.08L68.73 13.08Q68.87 12.81 69.06 12.57L69.06 12.57L71.47 9.74L68.89 9.74L68.89 9.74Q68.81 9.59 68.73 9.35L68.73 9.35L68.73 9.35Q68.66 9.11 68.66 8.83L68.66 8.83L68.66 8.83Q68.66 8.34 68.87 8.13L68.87 8.13L68.87 8.13Q69.09 7.91 69.45 7.91L69.45 7.91L73.86 7.91L73.86 7.91Q74.09 8.11 74.22 8.37L74.22 8.37L74.22 8.37Q74.35 8.64 74.35 8.97L74.35 8.97L74.35 8.97Q74.35 9.25 74.22 9.53L74.22 9.53L74.22 9.53Q74.09 9.80 73.89 10.04L73.89 10.04L71.54 12.87L74.28 12.87L74.28 12.87Q74.37 13.02 74.44 13.26L74.44 13.26L74.44 13.26Q74.52 13.50 74.52 13.78L74.52 13.78L74.52 13.78Q74.52 14.27 74.30 14.48L74.30 14.48L74.30 14.48Q74.09 14.70 73.72 14.70L73.72 14.70ZM80.46 14.70L75.82 14.70L75.82 14.70Q75.60 14.50 75.47 14.24L75.47 14.24L75.47 14.24Q75.33 13.97 75.33 13.64L75.33 13.64L75.33 13.64Q75.33 13.36 75.47 13.08L75.47 13.08L75.47 13.08Q75.60 12.81 75.80 12.57L75.80 12.57L78.20 9.74L75.63 9.74L75.63 9.74Q75.54 9.59 75.47 9.35L75.47 9.35L75.47 9.35Q75.39 9.11 75.39 8.83L75.39 8.83L75.39 8.83Q75.39 8.34 75.61 8.13L75.61 8.13L75.61 8.13Q75.82 7.91 76.19 7.91L76.19 7.91L80.60 7.91L80.60 7.91Q80.82 8.11 80.95 8.37L80.95 8.37L80.95 8.37Q81.09 8.64 81.09 8.97L81.09 8.97L81.09 8.97Q81.09 9.25 80.95 9.53L80.95 9.53L80.95 9.53Q80.82 9.80 80.63 10.04L80.63 10.04L78.27 12.87L81.02 12.87L81.02 12.87Q81.10 13.02 81.18 13.26L81.18 13.26L81.18 13.26Q81.26 13.50 81.26 13.78L81.26 13.78L81.26 13.78Q81.26 14.27 81.04 14.48L81.04 14.48L81.04 14.48Q80.82 14.70 80.46 14.70L80.46 14.70ZM85.23 13.19L85.23 13.19L85.23 13.19Q85.47 13.19 85.76 13.14L85.76 13.14L85.76 13.14Q86.04 13.09 86.18 13.01L86.18 13.01L86.18 11.89L85.18 11.97L85.18 11.97Q84.78 12.00 84.53 12.14L84.53 12.14L84.53 12.14Q84.28 12.28 84.28 12.56L84.28 12.56L84.28 12.56Q84.28 12.84 84.50 13.01L84.50 13.01L84.50 13.01Q84.71 13.19 85.23 13.19ZM85.12 7.69L85.12 7.69L85.12 7.69Q85.88 7.69 86.50 7.84L86.50 7.84L86.50 7.84Q87.12 7.99 87.56 8.31L87.56 8.31L87.56 8.31Q88.00 8.62 88.24 9.11L88.24 9.11L88.24 9.11Q88.48 9.59 88.48 10.25L88.48 10.25L88.48 13.38L88.48 13.38Q88.48 13.75 88.28 13.98L88.28 13.98L88.28 13.98Q88.07 14.21 87.79 14.38L87.79 14.38L87.79 14.38Q86.88 14.92 85.23 14.92L85.23 14.92L85.23 14.92Q84.49 14.92 83.89 14.78L83.89 14.78L83.89 14.78Q83.30 14.64 82.87 14.36L82.87 14.36L82.87 14.36Q82.45 14.08 82.21 13.65L82.21 13.65L82.21 13.65Q81.98 13.22 81.98 12.64L81.98 12.64L81.98 12.64Q81.98 11.68 82.56 11.16L82.56 11.16L82.56 11.16Q83.13 10.64 84.34 10.51L84.34 10.51L86.17 10.32L86.17 10.22L86.17 10.22Q86.17 9.81 85.81 9.64L85.81 9.64L85.81 9.64Q85.46 9.46 84.78 9.46L84.78 9.46L84.78 9.46Q84.25 9.46 83.75 9.58L83.75 9.58L83.75 9.58Q83.24 9.69 82.84 9.86L82.84 9.86L82.84 9.86Q82.66 9.73 82.53 9.47L82.53 9.47L82.53 9.47Q82.40 9.21 82.40 8.93L82.40 8.93L82.40 8.93Q82.40 8.57 82.58 8.35L82.58 8.35L82.58 8.35Q82.75 8.13 83.12 7.98L83.12 7.98L83.12 7.98Q83.52 7.83 84.08 7.76L84.08 7.76L84.08 7.76Q84.63 7.69 85.12 7.69Z"></path></g> <linearGradient data-v-1084b650="" gradientTransform="rotate(25)" id="41223dde-5459-baf1-0eeb-09672260afa3" x1="0%" y1="0%" x2="100%" y2="0%"><stop data-v-1084b650="" offset="0%" style="stop-color: rgb(102, 108, 53); stop-opacity: 1;"></stop> <stop data-v-1084b650="" offset="100%" style="stop-color: rgb(119, 214, 54); stop-opacity: 1;"></stop></linearGradient> <g data-v-1084b650="" id="56e13df7-697f-6714-3983-f08a691d9101" fill="url(#41223dde-5459-baf1-0eeb-09672260afa3)" stroke="none" transform="matrix(0.21093252431167864,0,0,0.21093252431167864,118.36012135324818,99.85110722603903)"><svg xmlns="http://www.w3.org/2000/svg" xmlns:xlink="http://www.w3.org/1999/xlink" version="1.1" x="0px" y="0px" viewBox="0 0 100 100" enable-background="new 0 0 100 100" xml:space="preserve"><path d="M93.408,82.469c-0.614-2.99-1.555-5.993-2.106-8.996c-0.603-3.283-1.397-6.566-1.964-9.855  c-0.704-4.088-1.353-8.207-2.209-12.262c-0.353-1.675,0.2-3.132,0.311-4.686c0.269-3.779,0.534-7.527-0.258-11.29  c-0.657-3.123-1.224-6.272-1.705-9.427c-0.397-2.604-0.625-5.234-0.925-7.85c2.672-0.81,3.35-4.973,2.665-7.344  c-0.761-2.63-2.574-4.07-5.994-4.725c-0.521-0.1-1.005-0.382-1.515-0.552C79.15,5.295,78.579,4.998,78.014,5  c-1.72,0.006-3.457,0.01-5.157,0.238c-2.943,0.394-5.868,0.937-8.794,1.451c-3.854,0.676-7.702,1.394-11.556,2.068  c-0.831,0.145-1.682,0.271-2.521,0.252c-3.927-0.09-7.741,0.71-11.577,1.376c-1.242,0.216-2.52,0.22-3.779,0.346  c-2.342,0.234-4.682,0.485-7.022,0.731c-2.378,0.25-4.753,0.524-7.134,0.75c-2.554,0.242-5.141,0.278-7.658,0.719  c-1.566,0.274-2.976,0.966-3.967,2.617c-1.078,1.796-2.608,3.525-3.091,5.578C5.655,21.561,5,21.998,5,22.434  c0,0.993,0,1.987,0,2.98c0,1.063,0.882,2.126,1.09,3.19c0.346,1.762,0.774,3.588,2.02,5.011c1.15,1.314,2.45,2.599,3.668,3.85  c0.887,0.911,1.863,1.802,2.847,2.605c4.92,4.018,9.918,7.974,14.824,12.009c3.897,3.205,7.751,6.481,11.599,9.747  c4.441,3.77,8.923,7.502,13.288,11.36c8.364,7.391,17.161,14.243,25.97,21.078c1.492,1.158,3.161,0.937,4.235-0.57  c1.747-2.45,4.279-4.882,6.636-6.807C92.232,86.026,94,85.072,95,84.16c0-0.284,0-0.568,0-0.851  C94,83.031,93.474,82.792,93.408,82.469z M8.838,22.733c0.254,2.573,0.491,4.982,0.728,7.391C8.488,27.774,8.19,25.379,8.838,22.733  z M11,32.96c0,0.024,0.022,0.047-0.049,0.071c-0.11-0.354-0.207-0.702-0.237-1.062c-0.352-4.23-0.796-8.463-1.145-12.694  C9.465,18.022,8,17.129,11,16.587C11,22.084,11,27.522,11,32.96z M33.932,13.117c0.417,0.238,0.944,0.384,1.232,0.73  c1.925,2.319,3.604,4.846,4.105,7.847c0.237,1.42-0.296,2.976-0.535,4.461c-0.022,0.138-0.464,0.33-0.674,0.292  c-0.47-0.086-0.917-0.302-1.334-0.451c1.426-4.81-0.138-8.835-2.897-12.58C33.863,13.317,33.897,13.217,33.932,13.117z   M13.309,33.589c-0.1,0.001-0.2,0.002-0.3,0.002c-0.297-5.705-0.02-11.419-0.121-17.127c0.098-0.029,0.197-0.059,0.296-0.088  c0.135,0.264,0.39,0.53,0.386,0.792C13.5,22.642,13.402,28.115,13.309,33.589z M15.448,30.157c-0.824,1.873,0.271,3.918-0.631,5.791  c-0.371-6.012-0.009-12.026-0.027-18.039c0.11-0.031,0.22-0.063,0.329-0.094c0.179,0.513,0.513,1.028,0.51,1.54  c-0.02,3.495-0.112,6.99-0.18,10.485C15.448,29.946,15.487,30.068,15.448,30.157z M17.136,37.988  c-0.407-0.499-0.84-0.792-0.816-1.042c0.097-1.021,0.327-2.03,0.522-3.041c0.053-0.277,0.239-0.55,0.22-0.815  c-0.156-2.213,0.96-4.16,1.272-6.274c0.462-3.125,0.605-6.215-1.179-9.015c-0.591-0.927-1.42-1.702-2.237-2.658  c2.866-0.262,5.798-0.516,8.727-0.802c2.482-0.242,4.958-0.544,7.442-0.761c0.509-0.044,1.261-0.017,1.527,0.297  c2.651,3.13,4.067,6.641,2.989,10.832c-0.173,0.674-0.481,0.932-1.235,0.954c-1.143,0.033-2.294,0.238-3.414,0.491  c-0.7,0.158-1.34,0.546-1.062,1.586c-1.564-0.282-1.937,1.131-2.755,1.845c-0.74,0.647-1.352,0.84-2.262,0.503  c-1.332-0.493-2.702-0.884-4.06-1.308c-0.164-0.051-0.349-0.054-0.523-0.048c-1.824,0.064-2.562,0.892-2.72,3.059  C17.431,33.731,17.299,35.673,17.136,37.988z M18.722,39.117c-0.17-0.381-0.5-0.77-0.482-1.142c0.08-1.66,0.258-3.316,0.407-4.973  c0.011-0.126,0.072-0.247,0.116-0.392C19.321,33.063,19.409,36.215,18.722,39.117z M20.794,40.961  c-0.157-0.244-0.447-0.486-0.451-0.733c-0.037-2.075-0.021-4.151-0.021-6.226c0.135-0.026,0.27-0.053,0.405-0.079  c0.136,0.267,0.386,0.532,0.391,0.801c0.033,2.043,0.018,4.086,0.018,6.13C21.022,40.889,20.908,40.925,20.794,40.961z   M22.893,42.863c-0.182-0.293-0.514-0.583-0.521-0.879c-0.045-2.132-0.024-4.266-0.024-6.399c0.1-0.029,0.2-0.059,0.3-0.088  c0.156,0.22,0.445,0.438,0.449,0.66C23.131,38.359,23.118,40.562,22.893,42.863z M25.064,44.276  c-0.097,0.024-0.194,0.048-0.291,0.072c-0.142-0.306-0.401-0.61-0.406-0.919c-0.036-2.114-0.019-4.23-0.019-6.72  c0.457,0.605,0.987,0.983,0.983,1.356C25.314,40.136,25.167,42.206,25.064,44.276z M27.211,46.183  c-0.119,0.039-0.239,0.078-0.358,0.117c-0.203-0.447-0.567-0.888-0.582-1.341c-0.065-1.974-0.028-3.952-0.028-6.104  c1.104,0.436,1.353,0.993,1.279,1.85C27.367,42.526,27.309,44.356,27.211,46.183z M28.823,47.924  c-0.105-0.266-0.308-0.535-0.298-0.796c0.073-2.015,0.187-4.029,0.289-6.043c0.096-0.045,0.192-0.089,0.288-0.134  c0.166,0.365,0.494,0.741,0.472,1.095C29.45,43.985,29.241,45.919,28.823,47.924z M31.077,49.245  c-0.101,0.023-0.202,0.045-0.304,0.068c-0.099-0.288-0.291-0.578-0.281-0.862c0.065-1.906,0.173-3.812,0.451-5.806  c0.131,0.258,0.381,0.52,0.374,0.774C31.266,45.362,31.163,47.304,31.077,49.245z M33.091,50.881  c-0.119,0.003-0.238,0.006-0.357,0.009c-0.11-0.3-0.309-0.599-0.314-0.901c-0.03-1.831-0.015-3.663-0.015-5.495  c0.142-0.029,0.284-0.059,0.426-0.088c0.178,0.332,0.514,0.667,0.507,0.995C33.302,47.228,33.183,49.054,33.091,50.881z   M35.204,52.493c-0.296-0.377-0.632-0.606-0.628-0.83c0.03-1.68,0.126-3.358,0.202-5.037c0.099-0.037,0.198-0.074,0.296-0.111  c0.182,0.427,0.532,0.861,0.517,1.281C35.539,49.274,35.36,50.747,35.204,52.493z M37.944,50.385  c-0.115,0.622-0.134,1.266-0.162,1.901c-0.026,0.593-0.005,1.189-0.005,1.835c-0.856-0.41-0.89-0.719-0.683-5.261  C38.034,49.258,38.115,49.462,37.944,50.385z M40.578,53.067c-0.195,1.018-0.042,2.103-0.042,3.3  c-0.923-0.379-1.213-0.889-1.167-1.708c0.067-1.186,0.017-2.378,0.017-3.673C40.306,51.484,40.789,51.964,40.578,53.067z   M43.049,55.346c-0.231,1.014-0.197,2.089-0.3,3.406c-1.477-1.749-0.466-3.596-0.886-5.424  C42.933,53.831,43.276,54.352,43.049,55.346z M45.651,61.448c-0.791-0.578-1.489-1.129-1.409-2.302  c0.084-1.217,0.019-2.445,0.019-3.992c0.678,0.632,1.097,1.002,1.488,1.4c0.138,0.14,0.305,0.354,0.293,0.522  C45.936,58.507,45.792,59.936,45.651,61.448z M47.28,62.793c-0.107,0.007-0.215,0.015-0.322,0.022c0-0.458-0.005-0.917,0.001-1.375  c0.008-0.566,0.029-1.132,0.036-1.698c0.006-0.529,0.001-1.058,0.001-1.587c0.15-0.026,0.3-0.053,0.45-0.079  c0.052,0.454,0.169,0.912,0.142,1.362C47.52,60.559,47.387,61.675,47.28,62.793z M49.436,64.789  c-0.899-1.409-0.031-2.949-0.154-4.415C49.959,61.799,49.461,63.312,49.436,64.789z M51.848,66.703  c-1.467-1.312-0.528-2.981-0.924-4.739C53.075,63.43,51.288,65.25,51.848,66.703z M54.564,68.941  c-1.244-0.635-1.58-2.431-0.932-4.358C55.407,65.758,54.178,67.445,54.564,68.941z M56.746,70.863  c-0.71-0.357-0.979-2.106-0.587-3.81C57.175,67.637,57.252,68.132,56.746,70.863z M58.679,68.503  c0.802,1.31-0.058,2.747,0.361,4.186C58.208,72.304,58.147,71.488,58.679,68.503z M61.021,74.502  c-1.115-1.438-0.267-3.13-0.665-4.724C61.606,70.138,61.233,69.855,61.021,74.502z M62.431,76.252  C62.287,76.263,62,76.273,62,76.283c0-1.445,0-2.89,0-4.335C64,73.301,62.011,74.815,62.431,76.252z M66.386,76.164  c-0.187,0.873-0.113,1.803-0.162,2.827c-0.883-0.521-1.523-0.968-1.416-2.072c0.105-1.081,0.023-2.181,0.023-3.415  C65.995,74.148,66.674,74.823,66.386,76.164z M68.877,81.088c-0.102,0.041-0.204,0.081-0.306,0.122  c-0.201-0.374-0.553-0.74-0.574-1.124c-0.072-1.299-0.028-2.605-0.028-3.919c0.689,0.27,0.975,0.747,0.926,1.539  C68.824,78.829,68.877,79.96,68.877,81.088z M70.5,81.909c0.092-1.11,0.02-2.234,0.02-3.473c1.099,0.553,1.448,1.244,1.385,2.305  c-0.066,1.105,0.118,2.224,0.204,3.502C71.062,83.658,70.402,83.101,70.5,81.909z M74.743,82.878  c-0.187,1.102-0.139,2.244-0.2,3.477c-0.82-0.36-1.09-0.845-1.046-1.624c0.067-1.192,0.017-2.391,0.017-3.62  C74.297,81.374,74.943,81.7,74.743,82.878z M77.407,84.675c-0.227,1.21-0.258,2.457-0.374,3.688  c-0.091,0.056-0.182,0.112-0.273,0.168c-0.207-0.345-0.586-0.688-0.589-1.034c-0.012-1.303,0.098-2.606,0.165-3.97  C77.08,83.569,77.601,83.645,77.407,84.675z M79.854,90.622c-1.203-0.512-1.712-1.157-1.344-2.429  c0.246-0.851,0.152-1.802,0.215-2.791c0.568,0.21,1.001,0.371,1.49,0.552C80.098,87.472,79.979,89.006,79.854,90.622z   M81.372,91.379c0.089-1.49,0.172-2.888,0.267-4.487c0.438,0.351,1.119,0.678,1.088,0.908  C82.561,89.036,83.078,90.562,81.372,91.379z M84.133,88.279c0-0.232-0.103-0.562,0.017-0.738c0.715-1.049-0.045-1.514-0.746-1.978  c-1.997-1.324-4.083-2.524-5.995-3.96c-2.759-2.072-5.439-4.256-8.074-6.487c-5.113-4.331-10.241-8.647-15.231-13.118  c-5.591-5.009-11.019-10.2-16.549-15.277c-4.157-3.816-8.345-7.597-12.559-11.35c-1.79-1.594-3.682-3.074-5.542-4.618  c0.911-0.705,2.154-0.616,3.096,0.137c0.553,0.442,1.064,1.155,1.886,0.357c0.091-0.088,0.463,0.044,0.662,0.153  c1.127,0.615,2.154,0.331,3-0.472c1.033-0.98,2.075-1.783,3.608-1.496c0.105,0.02,0.238-0.114,0.41-0.203  c-0.135-0.479-0.263-0.936-0.408-1.453c0.899-0.306,1.847-0.792,2.9-0.209c0.03,0.017,0.07,0.054,0.088,0.046  c1.897-0.858,3.437,0.54,5.141,0.859c2.234,0.419,4.752-0.228,4.925-3.006c0.021-0.343,0.646-0.903,1.021-0.929  c2.545-0.179,5.024,0.093,7.288,1.452c0.263,0.158,0.703,0.11,1.036,0.041c0.799-0.167,1.575-0.446,2.376-0.6  c0.801-0.154,1.766,0.015,1.72-1.302c-0.005-0.131,0.534-0.389,0.829-0.403c1.052-0.05,2.107-0.019,3.161-0.019  c-0.009-1.086-0.503-1.471-2.089-1.686c-2.238-0.304-3.352,0.138-3.742,1.484c-1.102,0.176-2.482-0.483-3.129,0.808  c-1.661-0.402-3.364-0.871-5.093-1.212c-0.958-0.189-1.957-0.219-2.938-0.221c-1.217-0.002-1.813,0.513-2.102,1.647  c-0.593,2.333-1.041,2.598-3.519,2.066c1.853-2.287,1.482-4.799,0.444-7.18c-0.958-2.199-2.287-4.236-3.463-6.362  c1.974-0.255,4.185-0.535,6.395-0.828c4.175-0.555,8.362-1.033,12.52-1.699C60.655,9.69,65.805,8.68,70.975,7.796  c2.103-0.36,4.228-0.594,6.343-0.881c0.101-0.014,0.256-0.03,0.305,0.026c1.049,1.201,2.566,0.913,3.886,1.251  c1.359,0.347,2.989,2.653,3.027,4.407c0.051,2.344-1.216,4.223-2.227,6.256c-1.813-1.372-3.687-1.899-5.795-1.244  c-0.685,0.213-1,0.578-0.925,1.394c0.133,1.45-0.333,1.781-1.73,1.335c-0.88-0.281-1.702-0.359-2.524,0.173  c-0.153,0.099-0.449,0.07-0.643,0c-2.674-0.958-5.089-0.337-7.353,1.2c-0.75,0.509-0.584,1.302-0.317,1.9  c0.155,0.347,0.819,0.465,1.257,0.682c0.014,0.007,0.053-0.036,0.129-0.092c-0.007-1.015,0.701-1.534,1.564-1.818  c1.556-0.512,3.111-1.081,4.721,0c0.356,0.239,1.121,0.206,1.51-0.023c0.697-0.41,1.238-0.162,1.87,0.027  c1.262,0.377,2.528,0.109,2.921-0.747c0.311-0.677,0.338-1.485,0.552-2.535c1.211,0.167,2.546,0.327,3.867,0.561  c0.2,0.035,0.457,0.402,0.486,0.64c0.206,1.717,0.379,3.438,0.508,5.162c0.017,0.225-0.217,0.577-0.43,0.692  c-0.614,0.333-0.988,0.815-0.664,1.44c0.179,0.344,0.739,0.49,1.127,0.724c0.077-0.078,0.153-0.156,0.23-0.234  c0.193,0.986,0.386,1.972,0.609,3.114c-1.971-1.194-4.044-1.435-6.087-0.997c-4.181,0.897-5.732,3.384-6.178,7.476  c-0.274,2.508,0.119,4.938,1.68,7.051c1.242,1.682,2.908,2.791,4.855,3.409c1.54,0.489,3.063,1.195,4.792,0.713  c0.651-0.181,1.394-0.029,2.119-0.029c1.456,11.885,1.833,23.857,5.218,35.121C87.709,85.487,85.948,86.861,84.133,88.279z   M61.96,36.118c-0.373-0.288-0.633-0.719-0.958-1.072c-0.403-0.437-0.765-0.94-1.241-1.28c-2.544-1.816-5.441-2.517-8.777-2.657  c-0.62,0.07-1.504,0.101-2.359,0.277c-5.747,1.189-10.219,4.911-10.081,11.702c0.063,3.125,1.873,5.556,4.882,6.374  c2.65,0.721,5.287,0.543,7.894-0.213c4.344-1.259,8.334-3.156,11.359-6.67C64.667,40.273,64.375,37.984,61.96,36.118z M54.199,33  c-1.815,0-3.629,0-5.444,0c0.016,0,0.031-0.433,0.047-0.563c1.805,0.08,3.61,0.246,5.415,0.325C54.211,32.813,54.205,33,54.199,33z   M82.864,58.743c0.659,1.392,1.314,2.819,1.695,4.303c0.995,3.88-0.533,6.443-4.354,7.437c-1.179,0.307-2.416,0.391-3.284,0.524  c-4.531-0.281-8.317-1.373-11.035-4.866c-3.14-4.037-2.302-9.931,1.767-12.371c2.217-1.329,4.577-1.286,7.025-0.858  c2.537,0.443,4.777,1.428,6.531,3.329C81.88,56.968,82.44,57.845,82.864,58.743z M38.036,34.136  c0.014,0.147,0.066,0.294,0.026,0.326c-0.803,0.642-1.572,1.345-2.444,1.875c-0.542,0.329-0.921-0.035-0.934-0.687  c-0.018-0.915,0.849-2.091,1.729-2.307c0.833-0.204,0.947,0.305,0.892,0.95C37.54,34.243,37.768,34.194,38.036,34.136z   M84.449,74.229c0.02,0.943-0.195,1.873-1.045,2.402c-0.357,0.222-0.902,0.139-1.362,0.195c0.018-0.452-0.426-0.918-0.324-1.349  C81.78,75.213,82,75.002,82,74.576c0,0.589,0,0.916,0,1.316c1-0.948,1.237-1.544,0.298-2.291c0.618-0.126,1.219-0.336,1.491-0.225  C84.026,73.473,84.443,73.928,84.449,74.229z M66.67,49.617c-0.337-1.067,0.175-2.675,1.076-3.136  c0.283-0.145,0.694-0.039,1.047-0.047c-0.185,0.204-0.4,0.39-0.55,0.617c-0.335,0.507-0.637,1.036-0.953,1.556  c0.081,0.057,0.161,0.113,0.242,0.169c0.502-0.56,1.004-1.119,1.598-1.781C69.125,48.613,68.044,49.683,66.67,49.617z   M68.919,29.358c0.073-1.16,0.959-1.637,3.446-1.91C72.237,28.706,70.674,29.598,68.919,29.358z M55.294,54.909  c-0.466,0.359-0.824,0.793-1.275,0.937c-0.416,0.133-1.164,0.133-1.355-0.121c-0.403-0.536-0.016-1.03,0.565-1.316  C54.058,54.002,54.739,54.1,55.294,54.909z"></path></svg></g></svg>